# xmcd CD database file
#
# Track frame offsets:
#	150
#	16098
#	28912
#	43127
#	57189
#	71663
#	88622
#	103917
#	115881
#	132119
#	150018
#	171436
#
# Disc length: 2460 seconds
#
# Revision: 0
# Processed by: cddbd v1.5.2PL0 Copyright (c) Steve Scherf et al.
# Submitted via: CDex 1.51
#
DISCID=99099a0c
DTITLE=JJ Cale - Roll On
DYEAR=2009
DGENRE=Blues
TTITLE0=Who Knew
TTITLE1=Former Me 
TTITLE2=Where the Sun Don't Shine
TTITLE3=Down to Memphis 
TTITLE4=Strange Days
TTITLE5=Cherry Street
TTITLE6=Fonda-Lina
TTITLE7=Leaving in the Morning
TTITLE8=Oh Mary 
TTITLE9=Old Friend
TTITLE10=Roll On
TTITLE11=Bring Down the Curtain
EXTD=YEAR: 2009
EXTT0=
EXTT1=
EXTT2=
EXTT3=
EXTT4=
EXTT5=
EXTT6=
EXTT7=
EXTT8=
EXTT9=
EXTT10=
EXTT11=
PLAYORDER=
